<?xml version="1.0" encoding="UTF-8"?>
<svg id="Layer_1" xmlns="http://www.w3.org/2000/svg" xmlns:xlink="http://www.w3.org/1999/xlink" version="1.1" viewBox="0 0 634.6 227.4">
  <!-- Generator: Adobe Illustrator 30.2.0, SVG Export Plug-In . SVG Version: 2.1.1 Build 105)  -->
  <defs>
    <style>
      .st0 {
        fill: #ff1f3e;
      }

      .st1 {
        fill: url(#linear-gradient);
      }
    </style>
    <linearGradient id="linear-gradient" x1="153.7" y1="30.8" x2="186.1" y2="42.8" gradientTransform="translate(0 216.4) scale(1 -1)" gradientUnits="userSpaceOnUse">
      <stop offset="0" stop-color="#000"/>
      <stop offset=".9" stop-color="#000" stop-opacity="0"/>
    </linearGradient>
  </defs>
  <path class="st0" d="M164.1,32.2c-21.6,0-38.6,17.7-38.6,40.4s16.9,39.8,38.6,39.8,38.6-17.5,38.6-39.8-16.9-40.4-38.6-40.4ZM164.1,96.1c-11.5,0-20.1-10.1-20.1-23.6s8.7-24.1,20.1-24.1,20.3,10.4,20.3,24.1-8.7,23.6-20.3,23.6ZM296.3,0h-14.4c-1.2,0-2.2,1-2.2,2.2v105.8c0,1.2,1,2.2,2.2,2.2h14.4c1.2,0,2.2-1,2.2-2.2V2.2c0-1.2-1-2.2-2.2-2.2ZM265.1,34.1c-3.4-.7-9-2-17.5-2-14.9,0-29.8,4.6-29.8,28.1v47.6c0,1.2,1,2.2,2.2,2.2h14.4c1.2,0,2.2-1,2.2-2.2v-47.2c0-3.4.6-12,13.5-12s10.5.9,11.6,1c1.1.2,2.1-.3,2.4-1.4l3.1-11.7c.4-1.3-.5-2.2-2-2.6ZM117,34.5h-15.4c-1,0-1.8.6-2,1.6l-14.6,51.7-13.4-46c-1.2-4.3-5.1-7.3-9.6-7.3h-4.7c-4.5,0-8.4,3-9.6,7.3l-13.4,46-14.6-51.7c-.2-.9-1.1-1.6-2-1.6H2.2c-1.4,0-2.5,1.4-2.1,2.8l21,65.8c1.3,4.2,5.2,7,9.6,7h6.2c4.4,0,8.4-3,9.7-7.2l13-44,13,44c1.3,4.2,5.2,7.2,9.7,7.2h6.2c4.4,0,8.3-2.8,9.6-7l21-65.8c.4-1.4-.6-2.8-2.1-2.8ZM632.4,34.5h-14.7s-1.7,0-2.3,1.4l-20.2,53.3-20.2-53.4c-.3-.8-1.2-1.3-2.1-1.3h-14.7c-2,0-2.7,1.7-2.2,2.9l29.5,74-11.9,30.1c-.6,1.5,0,3,2,3h14.5c.9,0,1.7-.5,2-1.4l42.2-105.6c.8-1.8-.5-3.1-2-3.1ZM381,0h-14.4c-1.2,0-2.2,1-2.2,2.2v31.7c-2.8-.6-7.8-1.7-15.8-1.7-28.7,0-34.7,25.8-34.7,39.9,0,31.2,18.7,40.3,36.3,40.3s25.1-3.6,30-5.7c2.9-1.3,2.9-3,2.9-4.5V2.2c0-1.2-1-2.2-2.2-2.2ZM364.4,94.4s-5.7,1.7-12.1,1.7c-15.1,0-18.7-10.7-18.7-23.3s-.5-24.2,18-24.2,12.8,1.7,12.8,1.7v44.1ZM516.8,32.2c-12.8,0-20,1.7-26.9,3.6-1.9.5-2.6,1.8-2.1,3.9l2.2,8.7c.3,1.3,1.4,3,3.5,2.4,4.5-1.1,11.4-3.3,21.4-3.3s12.7,3.8,12.7,12.7h-12.5c-26.5,0-33.9,14-33.9,25.4s7,26.6,31.9,26.6,28.1-4.7,30.2-5.8c1.7-.9,2.7-1.6,2.7-4.5v-43.6c0-19.7-11.7-26.3-29.3-26.3ZM527.4,95.6s-5.8,1.9-13.6,1.9-13.9-5.4-13.9-11,4.7-11.8,15-11.8h12.5v20.9ZM433.6,32.2c-14.9,0-25.1,3.6-30,5.7-2.9,1.3-2.9,3-2.9,4.5v100c0,1.2,1,2.2,2.2,2.2h14.4c1.2,0,2.2-1,2.2-2.2v-31.7c2.8.6,7.8,1.7,15.8,1.7,28.7,0,34.7-25.8,34.7-39.9,0-31.2-18.7-40.3-36.3-40.3ZM432.2,95.9c-6.3,0-12.8-1.7-12.8-1.7v-44.1s5.7-1.7,12.1-1.7c15.1,0,18.7,10.7,18.7,23.3s.5,24.2-18,24.2Z"/>
  <g>
    <path d="M21.5,182.7c-.2-.2-.4-.5-.4-.9s.1-.7.4-.9c.2-.2.5-.3.9-.3s.6.1.9.3c.2.2.4.5.4.9s-.1.7-.4.9c-.2.2-.5.3-.9.3s-.6-.1-.9-.3ZM21.4,204.3v-17.5h1.8v17.5h-1.8Z"/>
    <path d="M28.4,198.9c0,1.3.6,2.3,1.6,3,1,.7,2.4,1.1,4,1.1s2.7-.3,3.6-.9c1-.6,1.4-1.4,1.4-2.5s-.2-1.4-.7-1.9c-.5-.4-1-.8-1.7-1-.7-.2-1.7-.4-2.9-.6-1.5-.2-2.7-.5-3.6-.7-.9-.3-1.7-.7-2.3-1.3-.6-.6-.9-1.5-.9-2.6s.3-1.8.8-2.6c.6-.8,1.3-1.3,2.4-1.8,1-.4,2.1-.6,3.4-.6,2,0,3.6.4,4.9,1.3,1.3.9,2,2.2,2.1,3.8h-1.8c-.2-1.1-.7-2-1.6-2.7-.9-.6-2.1-1-3.5-1s-2.7.3-3.6.9c-.9.6-1.3,1.4-1.3,2.4s.2,1.3.7,1.8c.4.4,1,.7,1.7.9s1.6.3,2.8.5c1.5.2,2.8.5,3.7.8,1,.3,1.8.8,2.4,1.5.6.7.9,1.6.9,2.7s-.7,2.7-2,3.7-2.9,1.4-4.9,1.4-4-.5-5.4-1.5c-1.3-1-2-2.4-2.1-4.2h1.8Z"/>
    <path d="M66.7,188.5c1.3,1.3,1.9,3.3,1.9,6v9.8h-1.8v-9.8c0-2.1-.5-3.6-1.4-4.7-1-1.1-2.3-1.6-4-1.6s-3.3.7-4.4,2c-1.1,1.3-1.6,3.2-1.6,5.5v8.7h-1.8v-17.5h1.5l.3,3.7c.5-1.2,1.3-2.2,2.4-2.9,1.1-.7,2.4-1.1,3.9-1.1s3.8.7,5,2Z"/>
    <path d="M75.6,203.4c-1.3-.8-2.3-1.8-3-3.2-.7-1.4-1.1-2.9-1.1-4.7s.4-3.3,1.1-4.7c.7-1.3,1.7-2.4,3-3.2,1.3-.8,2.7-1.1,4.4-1.1s3.1.4,4.4,1.1c1.3.8,2.3,1.8,3,3.2s1.1,2.9,1.1,4.7-.4,3.3-1.1,4.7c-.7,1.4-1.7,2.4-3,3.2-1.3.8-2.7,1.1-4.4,1.1s-3.1-.4-4.4-1.1ZM83.4,202c1-.6,1.8-1.5,2.3-2.6.6-1.1.8-2.4.8-3.8s-.3-2.7-.8-3.8c-.6-1.1-1.3-2-2.3-2.6-1-.6-2.2-1-3.4-1s-2.4.3-3.4,1c-1,.6-1.8,1.5-2.3,2.6-.6,1.1-.8,2.4-.8,3.8s.3,2.7.8,3.8c.6,1.1,1.3,2,2.3,2.6,1,.6,2.2.9,3.4.9s2.4-.3,3.4-.9Z"/>
    <path d="M95.6,204.3l-6-17.5h1.9l5.1,15.4,5.3-15.4h1.6l5,15.4,5.4-15.4h1.8l-6.2,17.5h-1.9l-4.9-14.7-5.2,14.7h-1.9Z"/>
  </g>
  <g>
    <path class="st1" d="M177.7,169c-12.9-4.7-27.1,1.9-31.8,14.8-.8,2.3-1.3,4.8-1.5,7.3-.3,5.3,1.1,10.5,4,14.9,1.2,1.8.6,4.2-1.2,5.4-1.8,1.1-4.1.7-5.3-1.1-10.2-15.3-6.1-36,9.2-46.2,2.8-1.9,5.9-3.3,9.1-4.3,6.8-2,14-1.8,20.7.5h0c2.4.9,3.6,3.6,2.8,6-.9,2.3-3.4,3.6-5.8,2.8h0"/>
    <path d="M570.9,198.1c.2,3.7,3.4,6.4,8.7,6.4s7.5-1.9,7.5-4.8-3.4-4.2-8.1-4.8c-7-.9-12.6-2.3-12.6-8.8s5.2-9.5,12.3-9.4c7.1,0,12.3,3.4,12.8,9.9h-5.2c-.4-3.2-3.3-5.6-7.6-5.6s-7.3,1.8-7.3,4.7,3.3,3.9,7.9,4.4c7.1.9,12.8,2.2,12.8,9.1s-5.6,9.5-12.5,9.5-13.7-3.8-13.8-10.7h5.2Z"/>
    <path d="M549.7,181.8h-5.6v-4.6h5.6v-8.8h5v8.8h6l1.7,4.6h-7.7v18.4c0,2.6.9,3.6,3.6,3.6h2.4l1.7,4.6h-4.6c-6,0-8.2-2.6-8.2-8.2v-18.4Z"/>
    <path d="M541.6,191v17.4h-5v-17.1c0-6.5-3-9.9-8.5-9.9s-9.5,4.4-9.5,11.4v15.6h-5v-31.3h4.4l.7,4.2c1.8-2.4,5-4.6,10.3-4.6s12.6,3.9,12.6,14.2Z"/>
    <path d="M479.4,192.8c0-9.5,6-16,14.9-16s14.6,5.6,14.9,14.9c0,.7,0,1.4-.1,2.1h-24.3v.4c.2,6,3.9,10.1,9.9,10.1s7.9-2.3,8.9-6.4h5.1c-1.2,6.3-6.4,10.9-13.6,10.9s-15.5-6.4-15.5-16h0ZM503.7,189.6c-.5-5.4-4.2-8.4-9.4-8.4s-8.8,3.3-9.3,8.4h18.7Z"/>
    <path d="M474.6,190.5v18h-5v-17.7c0-6.1-2.7-9.3-7.4-9.3s-8.4,3.9-8.4,10.3v16.8h-5v-17.7c0-6.1-2.8-9.3-7.5-9.3s-8.3,4.3-8.3,10.6v16.5h-5v-31.3h4.4l.7,4.3c1.7-2.3,4.3-4.7,9.1-4.7s8.1,2,9.9,6c1.9-3.4,5.3-6,10.9-6s11.8,3.7,11.8,13.6Z"/>
    <path d="M394.5,177.2h5.3l9.6,25,9.3-25h5.3l-15.5,39.2c-2,5-3.1,7-7.5,7h-4.5v-4.6h3c2.9,0,3.4-.7,4.5-3.7l2.6-6.5-12.2-31.5h0Z"/>
    <path d="M396.6,203.8v4.6h-2.5c-4.2,0-5.6-1.8-5.6-4.8-2,2.8-5.1,5.2-10.5,5.2s-11.5-3.4-11.5-9.1,4.4-9.8,12.6-9.8h9.2v-2.1c0-4.1-2.9-6.5-7.8-6.5s-7.4,2.1-8,5.3h-5c.7-6.1,5.7-9.8,13.3-9.8s12.6,4,12.6,11.3v13.7c0,1.7.6,2.1,2,2.1h1.4ZM388.2,194.1h-9.7c-4.5,0-7,1.7-7,5.2s2.6,5.2,6.8,5.2c6.3,0,9.9-3.6,9.9-8.8v-1.5h0Z"/>
    <path d="M363.1,192.9c0,9.6-6.4,16-15,16s-8.8-2.1-10.7-5.2v19.8h-5v-46.3h4.4l.7,5c2.1-2.9,5.5-5.4,10.7-5.4,8.7,0,15,5.8,15,16h0ZM357.9,192.9c0-6.8-4.2-11.5-10.4-11.5s-10.3,4.7-10.3,11.4,4.2,11.7,10.3,11.7,10.4-4.7,10.4-11.5Z"/>
    <path d="M323.1,165.6h-8.7v43h8.7v-43Z"/>
    <path d="M309.7,201.3v7.3h-4.4c-4.5,0-5.9-2.2-5.8-5.2-2.2,3.5-5.4,5.5-10.3,5.5s-11.7-3.3-11.7-9.3,5-10.5,14.5-10.5h6.3v-1.5c0-2.8-2-4.7-5.6-4.7s-5.7,1.5-6,3.9h-8.4c.6-6.1,6.3-10.2,14.6-10.2s13.9,3.9,13.9,11.5v11.2c0,1.7.7,2,2,2h1,0ZM298.1,195h-6.3c-3.6,0-5.7,1.5-5.7,4.1s1.8,3.6,4.7,3.6c4.5,0,7.3-2.8,7.4-7.1v-.6Z"/>
    <path d="M274,192.8c0,9.8-6.1,16.2-14.7,16.2-3.8.1-7.4-1.6-9.7-4.7l-.9,4.3h-7.6v-43h8.7v15.4c2.3-2.9,5.8-4.5,9.5-4.4,8.5,0,14.6,6.1,14.6,16.1M265.2,192.8c0-5.4-3.1-9.1-7.8-9.1s-7.7,3.7-7.7,9,2.9,9.2,7.7,9.2,7.8-3.7,7.8-9.1"/>
    <path d="M203.3,192.8c0-9.7,6.6-16.2,16.7-16.2s16.7,6.5,16.7,16.2-6.6,16.2-16.7,16.2-16.7-6.5-16.7-16.2ZM227.8,192.8c0-5.3-3-9.1-7.9-9.1s-7.8,3.7-7.8,9.1,3,9.1,7.8,9.1,7.9-3.7,7.9-9.1Z"/>
    <path d="M198.7,165.6h-8.7v43h8.7v-43Z"/>
    <path d="M169.2,208.8c-2.7.3-5.2-.4-6.2-1.2-.3-.3-.5-.7-.6-1.1-.1-.6,0-1.2.5-1.6.9-.6,2.1-.8,3.2-.6.9.1,1.9.2,2.8.2,9.5,0,15.6-5.7,15.6-14.6s-6.1-14.6-15.6-14.6-15.6,5.8-15.6,14.6,1.9,8.9,5.2,11.5c-1.6,1-2.8,2.4-3.5,4.2-.6,2,0,4.1,1.6,5.5l.4.4-.5.2c-3.6,1.8-5.4,4.4-4.9,7.2,0,.3.1.6.2.8,1.6,5.6,9.8,7.9,17.8,7.7,4.6-.1,17.3-2.1,17.4-10,.2-10.8-12.2-9.1-17.1-8.6h-.7ZM168.8,182.3c3.9,0,6.4,2.9,6.4,7.6s-2.4,7.6-6.4,7.6-6.4-2.9-6.4-7.6,2.4-7.6,6.4-7.6ZM162.9,214.6c.2,0,.4,0,.7-.1,5.3-.8,12.6-1.6,14.7.7.6.6.7,1.5.4,2.3-.6,2.2-5.3,3.1-9.6,3.1-1.2,0-2.3,0-3.5-.2-3.5-.5-5.5-1.5-5.5-3.1,0-1.5,1.9-2.7,2.7-2.8"/>
    <path d="M186,165.4c0,2.8-2.3,5.1-5.1,5.1s-5.1-2.3-5.1-5.1,2.3-5.1,5.1-5.1,5.1,2.3,5.1,5.1Z"/>
  </g>
</svg>